<?xml version="1.0" encoding="utf-8"?>
<!-- Generator: Adobe Illustrator 19.0.0, SVG Export Plug-In . SVG Version: 6.00 Build 0)  -->
<svg version="1.1" id="Layer_1" xmlns="http://www.w3.org/2000/svg" xmlns:xlink="http://www.w3.org/1999/xlink" x="0px" y="0px"
	 viewBox="0 0 520.1 284.5" style="enable-background:new 0 0 520.1 284.5;" xml:space="preserve">
<style type="text/css">
	.st0{fill:#A77C5F;} /* paszcza ryby */
	.st1{fill:#D6BD87;stroke:#A77C5F;stroke-width:5;stroke-miterlimit:10;} /* fill: ryba; stroke: Obrys ryby */
	.st2{fill:#FFFFFF;} /* Zęby */
	.st3{fill:none;stroke:#A77C5F;stroke-width:2;stroke-miterlimit:10;} /* Myszka i przewód */
	.st4{fill:none;}
	.st5{fill:#A17456;} /* Napis */
	.st6{font-family:'MyriadPro-Bold';}
	.st7{font-size:53px;}
	.st8{font-family:'MyriadPro-Regular';}
	.st9{font-size:13px;}
	.st10{fill:#020304;} /* Oczy */
</style>
<g>
	<path id="XMLID_130_" class="st0" d="M222,71.3c0,0-13,13.6-1.3,44.8c3.4,9,8.8,19.5,17.2,31.6l-4.2,23.8c0,0,0.5-31.6-11.4-37.5
		c0,0-12.4-1.8-12.1,45.2c0,0,27.4,9,63.4,12.8c25.5,2.7,55.4,1.6,83-2.4c0,0-12.6-57.9-54.2-90.9c-5.5-4.4-9.3-11.2-16-14.4
		c0,0-14.3-5.9-35-10.1c-6.3-1.3-13.6-2.3-20.8-2.9c-2.3-0.2-4.5,0.1-6.7,0c-0.5,0-1,0.1-1.5,0.1C222.2,71.3,222.1,71.3,222,71.3z"
		/>
	<path id="XMLID_126_" class="st1" d="M228.1,69.3c0,0,167-145.2,247,74.9c0,0,54.3-45.3,39.7,26.8c0,0-4.3,50.7-41.3,11
		c0,0-13.7,43.7-52,67.7c0,0,39.7,42.3-15.3,29.7c0,0-26-6.7-31.3-17.7c0,0-35.7,8.3-80.7,1.7c0,0-80.3-18.7-81.3-82
		c0,0,62,21.7,142.3,9.7C355.1,191,344.1,80.3,228.1,69.3z"/>
	<circle id="XMLID_124_" class="st2" cx="264.6" cy="59.2" r="5.7"/>
	<path id="XMLID_105_" class="st3" d="M170.8,70.3c0,0,28.2-132.4,99.9-30.7"/>
	<g id="XMLID_95_">
		<g id="XMLID_97_">
			
				<ellipse id="XMLID_104_" transform="matrix(-0.9441 -0.3298 0.3298 -0.9441 288.806 230.9217)" class="st3" cx="164" cy="91" rx="13.6" ry="21.4"/>
			
				<ellipse id="XMLID_103_" transform="matrix(-0.9551 -0.2963 0.2963 -0.9551 303.9591 206.0671)" class="st3" cx="167.6" cy="80" rx="2.5" ry="5.1"/>
			<path id="XMLID_102_" class="st3" d="M153,81.9c0,0,7.1,6.6,25.2,7.8"/>
			<line id="XMLID_101_" class="st3" x1="170.6" y1="70.6" x2="169.2" y2="75.1"/>
		</g>
		<line id="XMLID_96_" class="st3" x1="166" y1="84.8" x2="165" y2="87.5"/>
	</g>
	<rect id="XMLID_61_" x="-3.2" y="118.8" class="st4" width="202.6" height="40.7"/>
	<text id="XMLID_91_" transform="matrix(1 0 0 1 -3.2082 156.5347)" class="st5 st6 st7">Informix</text>
	<rect id="XMLID_59_" x="41.5" y="159.5" class="st4" width="157.9" height="11.2"/>
	<text id="XMLID_89_" transform="matrix(1 0 0 1 41.5325 168.8009)" class="st5 st8 st9">Serwis &amp; sklep informatyczny</text>
	<path id="XMLID_39_" class="st2" d="M219.4,78.5c0,0,4-2.5,7.3,0l-3.6,22L219.4,78.5z"/>
	<path id="XMLID_38_" class="st2" d="M228.9,73.5c0,0,8.3-5.3,13.8,0l-10.3,40.3L228.9,73.5z"/>
	<path id="XMLID_37_" class="st2" d="M248.4,73.5c0,0,12.8-1.5,12.8,3.9l-12.8,36.4L248.4,73.5L248.4,73.5z"/>
	<path id="XMLID_36_" class="st2" d="M264.9,79.8c0,0,9.8-2.5,13.3,2.8l-11.3,34.3L264.9,79.8z"/>
	<path id="XMLID_35_" class="st2" d="M281.2,87.3c0,0,13.8,1.4,13,5.2l-10.8,32.8L281.2,87.3z"/>
	<path id="XMLID_34_" class="st2" d="M298.2,99.5c0,0,10.3,2.5,9.3,5.8L295,130.6L298.2,99.5z"/>
	<path id="XMLID_33_" class="st2" d="M310.4,112.8c0,0,7.8,1.5,8,4.5l-8,18.3V112.8z"/>
	<path id="XMLID_32_" class="st2" d="M321.2,124.3c0,0,7-0.3,7.8,3.5l-9.5,17L321.2,124.3z"/>
	<path id="XMLID_31_" class="st2" d="M329.9,137c0,0,4,1.5,4.5,3.8l-7.5,9.5L329.9,137z"/>
	<path id="XMLID_30_" class="st2" d="M335.4,146.8c0,0,5-2.8,5.5,3.5l-5.5,8.8V146.8z"/>
	<path id="XMLID_29_" class="st2" d="M342.1,188.4c0,0,5.9,2,7.5-0.4l-4.6-16.8L342.1,188.4z"/>
	<path id="XMLID_28_" class="st2" d="M331.4,189.9c0,0,5.8,1.5,6.7-0.3l-4.2-16.8L331.4,189.9z"/>
	<path id="XMLID_27_" class="st2" d="M318.4,190.5c0,0,6.3,1.2,7.5-0.4l-4.9-22.3L318.4,190.5z"/>
	<path id="XMLID_26_" class="st2" d="M303.4,190c0,0,9.1,2.6,11,0.7l-7.9-27.4L303.4,190z"/>
	<path id="XMLID_25_" class="st2" d="M284.1,190.1c0,0,8.7,3.9,13,0.5l-8.2-34.1L284.1,190.1z"/>
	<path id="XMLID_24_" class="st2" d="M261.1,187.9c0,0,11.7,3.8,17.1,1.2l-10.8-45.9L261.1,187.9z"/>
	<path id="XMLID_23_" class="st2" d="M241.1,184.6c0,0,9.4,4.4,14.6,2.4l-9.6-46.8L241.1,184.6z"/>
	<path id="XMLID_22_" class="st2" d="M216.3,177.9c0,0,8,3.3,14.3,1.1l-9.2-41.9L216.3,177.9z"/>
	<circle id="XMLID_40_" class="st10" cx="260.6" cy="59.8" r="1.6"/>
	<circle id="XMLID_43_" class="st2" cx="288.8" cy="64.3" r="5.7"/>
	<circle id="XMLID_42_" class="st10" cx="284.7" cy="64.9" r="1.6"/>
</g>
</svg>
